<svg xmlns="http://www.w3.org/2000/svg" version="1.1" xmlns:xlink="http://www.w3.org/1999/xlink"
    xmlns:svgjs="http://svgjs.dev/svgjs" width="1000" height="750" viewBox="0 0 1000 750">
    <rect width="1000" height="750" fill="#282634"></rect>
    <g transform="matrix(0.834,0,0,0.834,82.49454545454546,115.4193570850203)">
        <svg viewBox="0 0 396 247" data-background-color="#282634"
            preserveAspectRatio="xMidYMid meet" height="623" width="1000"
            xmlns="http://www.w3.org/2000/svg" xmlns:xlink="http://www.w3.org/1999/xlink">
            <g id="tight-bounds" transform="matrix(1,0,0,1,0.2400000000000091,-0.09999999999999432)">
                <svg viewBox="0 0 395.52 247.2" height="247.2" width="395.52">
                    <g>
                        <svg></svg>
                    </g>
                    <g>
                        <svg viewBox="0 0 395.52 247.2" height="247.2" width="395.52">
                            <g transform="matrix(1,0,0,1,75.54432,87.45370068564787)">
                                <svg viewBox="0 0 244.43135999999998 72.29259862870424"
                                    height="72.29259862870424" width="244.43135999999998">
                                    <g>
                                        <svg viewBox="0 0 244.43135999999998 72.29259862870424"
                                            height="72.29259862870424" width="244.43135999999998">
                                            <g>
                                                <svg
                                                    viewBox="0 0 244.43135999999998 72.29259862870424"
                                                    height="72.29259862870424"
                                                    width="244.43135999999998">
                                                    <g>
                                                        <svg
                                                            viewBox="0 0 244.43135999999998 72.29259862870424"
                                                            height="72.29259862870424"
                                                            width="244.43135999999998">
                                                            <g id="textblocktransform">
                                                                <svg
                                                                    viewBox="0 0 244.43135999999998 72.29259862870424"
                                                                    height="72.29259862870424"
                                                                    width="244.43135999999998"
                                                                    id="textblock">
                                                                    <g>
                                                                        <svg
                                                                            viewBox="0 0 244.43135999999998 72.29259862870424"
                                                                            height="72.29259862870424"
                                                                            width="244.43135999999998">
                                                                            <g
                                                                                transform="matrix(1,0,0,1,0,0)">
                                                                                <svg
                                                                                    width="244.43135999999998"
                                                                                    viewBox="2 -25.200000762939453 86.05000305175781 25.450000762939453"
                                                                                    height="72.29259862870424"
                                                                                    data-palette-color="#ff4057">
                                                                                    <path
                                                                                        d="M18-1.9L18-1.9 17.85-1.9Q13.35 0.2 9.1 0.2L9.1 0.2Q2.45 0.2 2.05-5.05L2.05-5.05Q2-5.4 2-5.7L2-5.7Q2-9.55 7.05-10.85L7.05-10.85Q10.05-11.5 17.85-12.4L17.85-12.4 17.85-16.8Q17.85-18.9 17.35-20.4 16.85-21.9 16.25-22.63 15.65-23.35 14.7-23.75L14.7-23.75Q13.5-24.25 12.03-24.25 10.55-24.25 8.65-23.5L8.65-23.5Q5.9-22.35 3.75-20.6L3.75-20.6 3.55-16.7 2.6-16.45 2.6-22.5 3.1-22.7Q7-24.4 9.05-24.75 11.1-25.1 12.05-25.13 13-25.15 13.88-25.1 14.75-25.05 16.15-24.65 17.55-24.25 18.57-23.53 19.6-22.8 20.35-21.35 21.1-19.9 21.1-17.9L21.1-17.9 21.1-2.6Q21.1-1.05 21.9-1.05L21.9-1.05 24.95-0.9 24.9-0.15Q22.1 0.25 19.9 0.25L19.9 0.25Q19.3 0.2 18.65-0.38 18-0.95 18-1.9ZM10-0.6L10-0.6Q13.7-0.6 17.85-3.2L17.85-3.2 17.85-11.45Q10.35-11.2 8.43-10.58 6.5-9.95 5.78-8.63 5.05-7.3 5.05-6L5.05-6Q5.05-5.75 5.05-5.5L5.05-5.5Q5.2-2.9 6.6-1.75 8-0.6 10-0.6ZM39.5-24.05L39.5-24.05Q36.5-24 33-21.85L33-21.85 33-1 36.75-0.75Q36.75-0.7 36.7 0L36.7 0 26.7 0.05Q26.7-0.4 26.75-0.65L26.75-0.65 29.35-1Q29.65-1 29.75-1.45L29.75-1.45 29.75-23.4Q29.65-23.75 29.45-23.75L29.45-23.75 26.45-23.85 26.5-24.55Q29.2-25 30.6-25 32-25 32.5-24.35 33-23.7 33-22.95L33-22.95 33-22.35Q37.15-24.95 40.6-25.15L40.6-25.15Q45.35-25.15 47.05-22.45L47.05-22.45Q51.4-24.95 55.25-25.15L55.25-25.15Q58.75-25.15 60.55-23.7L60.55-23.7Q61.4-23.05 62.02-21.68 62.65-20.3 62.65-18.4L62.65-18.4 62.65-1 66.4-0.75Q66.4-0.7 66.35 0L66.35 0 56.35 0.05Q56.35-0.4 56.4-0.65L56.4-0.65 59-1Q59.3-1 59.4-1.45L59.4-1.45 59.4-17.15Q59.4-19.15 58.9-20.58 58.4-22 57.8-22.65 57.2-23.3 56.3-23.65L56.3-23.65Q55.3-24.05 54.15-24.05L54.15-24.05Q51.05-24 47.4-21.7L47.4-21.7Q48.05-20.3 48.05-18.4L48.05-18.4 48.05-1 51.8-0.75Q51.8-0.7 51.75 0L51.75 0 41.7 0.05 41.75-0.65 44.35-1Q44.7-1.05 44.8-1.5L44.8-1.5 44.8-17.2Q44.8-19.65 44.15-21.23 43.5-22.8 42.4-23.3L42.4-23.3Q40.9-24.05 39.5-24.05ZM78.09-0.6L78.09-0.6Q78.4-0.6 78.7-0.65L78.7-0.65Q81.3-0.7 83.05-2.27 84.8-3.85 84.8-6.9L84.8-6.9Q84.8-9.9 80.09-11.25L80.09-11.25Q78.15-11.8 76.2-12.45 74.25-13.1 72.87-14.5 71.5-15.9 71.5-18.15L71.5-18.15Q71.5-21.35 73.95-23.28 76.4-25.2 80.15-25.2L80.15-25.2Q82.95-25.2 85.8-24.2L85.8-24.2 86.7-23.85 86.7-18.1 85.75-17.75 85.55-22Q82.65-24.3 80.7-24.3L80.7-24.3Q77.95-24.3 76.34-22.68 74.75-21.05 74.75-18.35L74.75-18.35Q74.75-16.8 76.12-15.85 77.5-14.9 79.45-14.35 81.4-13.8 83.34-13.13 85.3-12.45 86.67-10.93 88.05-9.4 88.05-6.95L88.05-6.95Q88.05-3.65 85.57-1.73 83.09 0.2 78.55 0.2 74 0.2 71-1.95L71-1.95 71-7.7 71.9-8.05 72.15-3.8Q72.84-2.5 74.67-1.55 76.5-0.6 78.09-0.6Z"
                                                                                        opacity="1"
                                                                                        transform="matrix(1,0,0,1,0,0)"
                                                                                        fill="#ff4057"
                                                                                        class="undefined-text-0"
                                                                                        data-fill-palette-color="primary"
                                                                                        id="text-0"></path>
                                                                                </svg>
                                                                            </g>
                                                                        </svg>
                                                                    </g>
                                                                </svg>
                                                            </g>
                                                        </svg>
                                                    </g>
                                                </svg>
                                            </g>
                                        </svg>
                                    </g>
                                </svg>
                            </g>
                            <path
                                d="M188.114 81.454L188.114 24.948 385.418 24.948 385.418 222.252 188.114 222.252 188.114 165.746 194.634 165.746 194.634 215.732 378.898 215.732 378.898 31.468 194.634 31.468 194.634 81.454Z"
                                fill="#ff4057" stroke="transparent"
                                data-fill-palette-color="primary"></path>
                        </svg>
                    </g>
                    <defs></defs>
                </svg>
                <rect width="395.52" height="247.2" fill="none" stroke="none" visibility="hidden"></rect>
            </g>
        </svg>
    </g>
</svg>